<svg width="208" height="208" viewBox="0 0 208 208" fill="none" xmlns="http://www.w3.org/2000/svg">
<circle cx="104" cy="104" r="104" fill="black"/>
<rect x="4" y="4" width="200" height="200" rx="100" fill="white"/>
<path d="M96 30C101.61 30 107.22 30 113 30C113 78.84 113 127.68 113 178C107.39 178 101.78 178 96 178C96 129.16 96 80.32 96 30Z" fill="black"/>
<path d="M132 55C137.61 55 143.22 55 149 55C149 87.34 149 119.68 149 153C143.39 153 137.78 153 132 153C132 120.66 132 88.32 132 55Z" fill="black"/>
<path d="M60 55C65.28 55 70.56 55 76 55C76 87.34 76 119.68 76 153C70.72 153 65.44 153 60 153C60 120.66 60 88.32 60 55Z" fill="black"/>
<path d="M168 83C173.61 83 179.22 83 185 83C185 96.86 185 110.72 185 125C179.39 125 173.78 125 168 125C168 111.14 168 97.28 168 83Z" fill="black"/>
<path d="M23 83C28.61 83 34.22 83 40 83C40 96.86 40 110.72 40 125C34.39 125 28.78 125 23 125C23 111.14 23 97.28 23 83Z" fill="black"/>
</svg>
